<svg width="156" height="62" viewBox="0 0 156 62" fill="none" xmlns="http://www.w3.org/2000/svg">
<path d="M19.2432 35.7601V19.3525H25.4071C26.7739 19.3525 27.9664 19.5657 28.9848 19.9987C30.0099 20.4317 30.8608 21.0179 31.5509 21.7574C32.241 22.4968 32.7569 23.3628 33.112 24.3554C33.4604 25.348 33.6346 26.4072 33.6346 27.533C33.6346 28.7787 33.4403 29.9112 33.0517 30.9171C32.6631 31.9296 32.107 32.789 31.3901 33.5018C30.6665 34.2212 29.8022 34.7742 28.7838 35.1672C27.7654 35.5602 26.6399 35.7534 25.4004 35.7534H19.2365L19.2432 35.7601ZM29.7553 27.533C29.7553 26.8069 29.6615 26.1474 29.4672 25.5545C29.2729 24.9616 28.9915 24.4487 28.6163 24.0157C28.2411 23.5827 27.7855 23.2562 27.2429 23.0231C26.7002 22.7899 26.0905 22.6767 25.4071 22.6767H23.0621V32.4293H25.4071C26.1039 32.4293 26.727 32.3027 27.2697 32.0562C27.8123 31.8097 28.2679 31.47 28.6297 31.0303C28.9915 30.5907 29.2729 30.0777 29.4672 29.4848C29.6615 28.892 29.7553 28.2391 29.7553 27.533Z" fill="white"/>
<path d="M38.5383 19.3525H41.982L48.0052 35.7601H44.0992L42.8195 32.0895H37.6807L36.4278 35.7601H32.5217L38.545 19.3525H38.5383ZM42.1897 29.4715L40.2601 23.6693L38.2837 29.4715H42.1897Z" fill="white"/>
<path d="M49.1913 35.7601V19.3525H55.3552C56.7153 19.3525 57.9146 19.5657 58.9329 19.9987C59.958 20.4317 60.8089 21.0179 61.499 21.7574C62.1891 22.4968 62.7117 23.3628 63.0601 24.3554C63.4085 25.348 63.5827 26.4072 63.5827 27.533C63.5827 28.7787 63.3884 29.9112 62.9998 30.9171C62.6112 31.9296 62.0551 32.789 61.3382 33.5018C60.6146 34.2212 59.7503 34.7742 58.732 35.1672C57.7136 35.5602 56.588 35.7534 55.3485 35.7534H49.1846L49.1913 35.7601ZM59.6967 27.533C59.6967 26.8069 59.6029 26.1474 59.4086 25.5545C59.2143 24.9616 58.9329 24.4487 58.5578 24.0157C58.1826 23.5827 57.727 23.2562 57.1843 23.0231C56.6416 22.7899 56.0319 22.6767 55.3485 22.6767H52.9968V32.4293H55.3485C56.0453 32.4293 56.6684 32.3027 57.2111 32.0562C57.7538 31.8097 58.2094 31.47 58.5712 31.0303C58.9329 30.5907 59.2143 30.0777 59.4086 29.4848C59.6029 28.892 59.6967 28.2391 59.6967 27.533Z" fill="white"/>
<path d="M68.9289 19.3525H72.3726L78.3959 35.7601H74.4898L73.2101 32.0895H68.0713L66.8184 35.7601H62.9124L68.9356 19.3525H68.9289ZM72.5803 29.4715L70.6508 23.6693L68.6743 29.4715H72.5803Z" fill="white"/>
<path d="M91.963 33.354C90.4287 35.0328 88.66 35.8721 86.6634 35.8721C85.5445 35.8721 84.5194 35.6323 83.5814 35.1527C82.6434 34.673 81.8327 34.0469 81.1426 33.2608C80.4525 32.4747 79.9166 31.5887 79.528 30.5895C79.1394 29.5969 78.9451 28.5777 78.9451 27.5251C78.9451 26.4726 79.1327 25.3868 79.5146 24.3809C79.8965 23.3816 80.4257 22.4956 81.1091 21.7362C81.7925 20.9768 82.5965 20.3639 83.5278 19.9109C84.4591 19.4579 85.4708 19.2314 86.5763 19.2314C87.3803 19.2314 88.1173 19.318 88.7872 19.4979C89.4505 19.6778 90.0468 19.9243 90.5694 20.2373C91.0853 20.5504 91.5342 20.9302 91.9161 21.3698C92.298 21.8095 92.6196 22.2891 92.8809 22.8154L91.628 23.6481C91.0853 22.6289 90.3818 21.8828 89.5108 21.4098C88.6399 20.9302 87.6617 20.6903 86.5562 20.6903C85.645 20.6903 84.8142 20.8835 84.0839 21.2699C83.3469 21.6563 82.7171 22.1692 82.2012 22.8087C81.6786 23.4482 81.2833 24.181 81.0019 25.0071C80.7205 25.8331 80.5865 26.6791 80.5865 27.5585C80.5865 28.4844 80.7473 29.3637 81.0622 30.1898C81.3771 31.0225 81.8193 31.7486 82.3754 32.3748C82.9315 33.001 83.5881 33.4939 84.3385 33.867C85.0889 34.24 85.9063 34.4199 86.7907 34.4199C87.7354 34.4199 88.6398 34.2001 89.4974 33.7604C90.355 33.3207 91.1858 32.6279 91.9764 31.6687V28.9441H88.3049V27.6983H93.3499V35.7589H91.9764V33.354H91.963Z" fill="white"/>
<path d="M96.0574 35.7602V19.3594H103.032C103.742 19.3594 104.399 19.5126 104.995 19.8124C105.591 20.1121 106.107 20.5052 106.543 20.9915C106.978 21.4778 107.313 22.0307 107.554 22.6435C107.796 23.2631 107.916 23.8826 107.916 24.5155C107.916 25.1483 107.829 25.6879 107.648 26.2342C107.467 26.7804 107.219 27.2734 106.905 27.713C106.59 28.1527 106.201 28.5191 105.752 28.8189C105.303 29.1186 104.801 29.3251 104.245 29.4317L108.291 35.7602H106.456L102.576 29.7048H97.6922V35.7602H96.0641H96.0574ZM97.6855 28.2726H103.079C103.561 28.2726 103.997 28.166 104.392 27.9595C104.787 27.753 105.122 27.4732 105.404 27.1135C105.685 26.7604 105.9 26.3607 106.054 25.9144C106.208 25.4681 106.288 24.9951 106.288 24.5021C106.288 24.0092 106.201 23.5362 106.02 23.0832C105.839 22.6302 105.598 22.2305 105.297 21.8908C104.995 21.551 104.64 21.2846 104.225 21.0847C103.816 20.8849 103.38 20.785 102.931 20.785H97.6788V28.2726H97.6855Z" fill="white"/>
<path d="M117.417 35.8721C116.271 35.8721 115.219 35.639 114.268 35.166C113.317 34.693 112.499 34.0735 111.816 33.2941C111.132 32.5147 110.61 31.6287 110.235 30.6228C109.859 29.6235 109.678 28.5977 109.678 27.5518C109.678 26.5059 109.879 25.4134 110.275 24.4075C110.67 23.4083 111.213 22.5223 111.916 21.7495C112.613 20.9768 113.437 20.3706 114.382 19.9109C115.327 19.4579 116.352 19.2314 117.45 19.2314C118.549 19.2314 119.648 19.4713 120.599 19.9576C121.551 20.4439 122.368 21.0767 123.038 21.8628C123.715 22.6488 124.237 23.5348 124.606 24.5341C124.981 25.5267 125.162 26.5392 125.162 27.5718C125.162 28.6643 124.968 29.7101 124.572 30.7161C124.177 31.7153 123.634 32.6013 122.944 33.3607C122.254 34.1201 121.437 34.733 120.492 35.186C119.547 35.639 118.522 35.8655 117.424 35.8655M111.313 27.5451C111.313 28.4378 111.461 29.2971 111.755 30.1232C112.05 30.9492 112.466 31.682 113.008 32.3148C113.551 32.9544 114.194 33.4606 114.938 33.8403C115.682 34.2201 116.512 34.4066 117.424 34.4066C118.335 34.4066 119.199 34.2067 119.956 33.807C120.713 33.4073 121.356 32.8811 121.886 32.2349C122.415 31.5887 122.817 30.8559 123.105 30.0432C123.393 29.2239 123.534 28.3978 123.534 27.5451C123.534 26.6525 123.38 25.7931 123.078 24.9671C122.777 24.141 122.355 23.4149 121.812 22.7821C121.269 22.1492 120.626 21.6496 119.882 21.2699C119.139 20.8902 118.315 20.7037 117.417 20.7037C116.519 20.7037 115.641 20.8968 114.884 21.2899C114.127 21.6829 113.484 22.2025 112.955 22.8487C112.425 23.4949 112.023 24.2276 111.735 25.047C111.447 25.8664 111.307 26.6924 111.307 27.5451" fill="white"/>
<path d="M134.594 34.4213C135.632 34.4213 136.496 34.2281 137.186 33.835C137.877 33.442 138.426 32.9291 138.835 32.2896C139.243 31.65 139.531 30.9239 139.692 30.1045C139.853 29.2852 139.933 28.4658 139.933 27.6331V19.3594H141.561V27.6331C141.561 28.7389 141.434 29.7915 141.186 30.784C140.938 31.7766 140.536 32.6493 139.987 33.4087C139.438 34.1615 138.721 34.7677 137.836 35.214C136.952 35.6603 135.873 35.8868 134.607 35.8868C133.341 35.8868 132.208 35.6537 131.317 35.1807C130.426 34.7077 129.709 34.0882 129.167 33.3221C128.624 32.5494 128.235 31.6767 128.001 30.6908C127.766 29.7049 127.652 28.6856 127.652 27.6398V19.366H129.254V27.6398C129.254 28.5058 129.341 29.3385 129.508 30.1578C129.676 30.9772 129.971 31.6967 130.379 32.3295C130.788 32.9624 131.337 33.4687 132.021 33.855C132.704 34.2414 133.555 34.4346 134.58 34.4346" fill="white"/>
<path d="M144.262 35.7602V19.3594H151.096C151.806 19.3594 152.462 19.5126 153.059 19.8124C153.655 20.1121 154.171 20.5052 154.606 20.9915C155.042 21.4778 155.384 22.0307 155.631 22.6435C155.879 23.2631 156 23.8826 156 24.5155C156 25.1949 155.886 25.8411 155.652 26.4673C155.417 27.0935 155.095 27.6398 154.673 28.1194C154.258 28.599 153.755 28.9854 153.173 29.2718C152.59 29.565 151.947 29.7115 151.23 29.7115H145.883V35.7669H144.255L144.262 35.7602ZM145.89 28.2726H151.169C151.652 28.2726 152.087 28.166 152.483 27.9595C152.878 27.753 153.213 27.4732 153.494 27.1268C153.776 26.7804 153.99 26.3807 154.144 25.9277C154.298 25.4747 154.379 25.0018 154.379 24.5088C154.379 24.0158 154.291 23.5229 154.111 23.0632C153.93 22.6102 153.695 22.2105 153.387 21.8708C153.085 21.5311 152.73 21.2646 152.315 21.0714C151.906 20.8782 151.478 20.785 151.022 20.785H145.883V28.2726H145.89Z" fill="white"/>
<path d="M9.96948 4.50991C11.9996 4.50991 13.6477 6.14866 13.6477 8.16047V13.563H8.2141C6.18402 13.563 4.53584 11.9243 4.53584 9.91247C4.53584 9.41951 4.55594 8.79998 4.58274 8.13382C4.61624 7.02799 4.66314 5.82891 4.63634 4.60317C4.88424 4.60317 5.13214 4.60317 5.39343 4.60317C6.37832 4.60317 7.33641 4.56986 8.1873 4.54321C8.85059 4.52323 9.48038 4.49658 9.97618 4.49658M0 0C1.11219 2.68463 0.629792 7.30778 0.629792 9.91247C0.629792 14.076 4.02665 17.4534 8.2141 17.4534H17.5605V8.16713C17.5605 4.00363 14.1636 0.626191 9.97618 0.626191C8.75679 0.626191 7.09521 0.732777 5.40013 0.732777C3.45046 0.732777 1.45388 0.592883 0.00669992 0.00666144" fill="#E7D31D"/>
<path d="M22.9327 39.9092H19.2411V55.4374H22.9327V39.9092Z" fill="white"/>
<path d="M25.7737 55.4378H35.4149V53.7191C35.4149 48.7496 32.9292 45.7852 27.8172 44.666L26.9931 47.5905C28.3397 47.8702 29.4452 48.4165 30.2894 49.2159C31.1738 50.0553 31.6897 51.1078 31.8237 52.3402L31.8639 52.7266H25.7737V55.4312V55.4378Z" fill="white"/>
<path d="M42.0813 39.9092H38.3896V55.4374H42.0813V39.9092Z" fill="white"/>
<path d="M44.9222 55.4374H61.6251V39.9092H57.9335V52.7328H54.5299L54.4964 52.4197C54.0676 48.2428 51.6021 45.7048 46.9657 44.6722L46.1416 47.5967C47.4883 47.8765 48.5938 48.4227 49.438 49.2221C50.3224 50.0615 50.8383 51.114 50.9723 52.3464L51.0125 52.7328H44.9222V55.4374Z" fill="white"/>
<path d="M85.304 55.4443H78.3361C74.3027 55.4443 72.2526 53.6057 72.2526 49.9684C72.2526 48.3563 72.735 47.0107 73.6864 45.9648C74.7315 44.8324 76.172 44.2595 77.9743 44.2595C79.5756 44.2595 81.0965 44.5326 82.4967 45.0722L82.557 45.0988V54.092H85.304V55.451V55.4443ZM77.78 45.6184C76.6142 45.6184 75.6762 45.9981 74.9928 46.7509C74.3094 47.5037 73.961 48.5295 73.961 49.8086C73.961 51.2808 74.3228 52.3666 75.033 53.0461C75.7633 53.7389 76.9559 54.092 78.5907 54.092H80.9089V46.1913C80.0714 45.8116 79.0195 45.6251 77.78 45.6251M79.3746 42.3276C79.0731 42.3276 78.8118 42.221 78.5974 42.0212C78.3897 41.808 78.2892 41.5415 78.2892 41.2218C78.2892 40.9286 78.3897 40.6755 78.5974 40.4623C78.8118 40.2492 79.0731 40.1426 79.3746 40.1426C79.6761 40.1426 79.9374 40.2425 80.1518 40.449C80.3729 40.6622 80.4868 40.922 80.4868 41.2218C80.4868 41.5215 80.3729 41.788 80.1518 42.0078C79.9374 42.221 79.6761 42.3276 79.3746 42.3276ZM76.2591 42.3276C75.9576 42.3276 75.6963 42.221 75.4953 42.0212C75.2809 41.808 75.1737 41.5415 75.1737 41.2284C75.1737 40.9353 75.2809 40.6822 75.4953 40.469C75.703 40.2558 75.9576 40.1492 76.2591 40.1492C76.9827 40.1492 77.3713 40.5223 77.3713 41.2284C77.3713 41.5349 77.2641 41.8013 77.0497 42.0145C76.8353 42.2277 76.574 42.3342 76.2591 42.3342" fill="white"/>
<path d="M97.6322 55.4448H84.755V54.0858H89.8737C89.1837 53.7327 88.6008 53.2265 88.1385 52.5736C87.5422 51.7276 87.2407 50.7417 87.2407 49.6492C87.2407 48.1237 87.7097 46.8513 88.6276 45.8721C89.6325 44.8062 91.0395 44.2666 92.8016 44.2666C93.9138 44.2666 94.959 44.4598 95.9171 44.8462L95.9908 44.8795L95.6759 46.2717L95.5687 46.2251C94.6508 45.8121 93.6659 45.6056 92.6408 45.6056C91.5152 45.6056 90.6107 45.952 89.9407 46.6248C89.2574 47.3243 88.909 48.2969 88.909 49.5226C88.909 50.8749 89.4249 51.9674 90.4432 52.7535C91.5889 53.6461 93.3108 54.0991 95.562 54.0991H97.6188V55.4581L97.6322 55.4448Z" fill="white"/>
<path d="M102.99 61.2535C101.791 61.2535 100.545 61.1203 99.3052 60.8605L99.2181 60.8405L99.3454 59.3683L99.4526 59.3949C100.813 59.728 102.066 59.8946 103.184 59.8946C106.28 59.8946 107.787 58.6355 107.787 56.0441V55.4379H105.208C101.174 55.4379 99.1243 53.5993 99.1243 49.9621C99.1243 48.35 99.6067 47.0044 100.558 45.9651C101.603 44.8327 103.044 44.2598 104.846 44.2598C106.447 44.2598 107.968 44.5329 109.368 45.0725L109.429 45.0991V54.0923H113.234V55.4513H109.429V56.0575C109.429 57.4631 108.96 58.6422 108.042 59.5681C106.91 60.6939 105.208 61.2602 102.977 61.2602M104.652 45.6187C103.486 45.6187 102.548 45.9984 101.865 46.7512C101.181 47.504 100.833 48.5299 100.833 49.8022C100.833 51.2744 101.195 52.3603 101.905 53.0398C102.635 53.7326 103.828 54.0856 105.462 54.0856H107.781V46.185C106.943 45.8053 105.891 45.6187 104.652 45.6187Z" fill="white"/>
<path d="M128.725 55.4448H121.992C119.299 55.4448 117.483 54.6854 116.592 53.1865C116.418 53.806 116.063 54.319 115.533 54.7187C114.897 55.1983 114.093 55.4448 113.148 55.4448H112.699V54.0858H112.8C113.711 54.0858 114.388 53.8327 114.803 53.3397C115.346 52.7135 115.62 51.581 115.62 49.9689C115.62 48.3568 116.109 47.0178 117.061 45.972C118.106 44.8395 119.533 44.2666 121.315 44.2666C124.531 44.2666 126.159 45.9986 126.159 49.4027V54.0925H128.712V55.4514L128.725 55.4448ZM121.161 45.6189C119.995 45.6189 119.057 46.0053 118.374 46.758C117.691 47.5041 117.342 48.5367 117.342 49.8224C117.342 51.2879 117.704 52.3671 118.414 53.0399C119.145 53.7327 120.337 54.0858 121.972 54.0858H124.531V49.7358C124.531 46.9646 123.432 45.6189 121.161 45.6189Z" fill="white"/>
<path d="M133.703 59.8804C133.402 59.8804 133.14 59.7738 132.926 59.5606C132.705 59.3474 132.591 59.0876 132.591 58.7745C132.591 58.4614 132.705 58.215 132.926 58.0018C133.134 57.782 133.402 57.6754 133.703 57.6754C134.005 57.6754 134.279 57.782 134.494 57.9951C134.708 58.2083 134.815 58.4681 134.815 58.7812C134.815 59.0943 134.708 59.3474 134.494 59.5606C134.273 59.7738 134.005 59.8804 133.703 59.8804ZM143.204 55.4437H128.169V54.0848H138.112C138.239 53.1321 138.299 52.2262 138.299 51.3868C138.299 49.4216 137.911 47.9961 137.14 47.1434C136.323 46.2374 134.916 45.7777 132.96 45.7777C132.129 45.7777 131.298 45.831 130.487 45.9376L130.38 45.9509V44.6186L130.46 44.6053C131.352 44.4787 132.229 44.4121 133.073 44.4121C135.519 44.4121 137.314 44.9983 138.407 46.1508C139.425 47.23 139.941 48.9287 139.941 51.1936C139.941 52.1596 139.881 53.1321 139.753 54.0848H143.19V55.4437H143.204Z" fill="white"/>
<path d="M154.734 55.4448H142.647V54.0858H144.939C145.294 54.0858 145.615 54.0858 145.903 54.0991C144.765 53.2798 144.188 51.9008 144.188 49.9689C144.188 48.3635 144.671 47.0178 145.629 45.972C146.674 44.8395 148.101 44.2666 149.883 44.2666C153.099 44.2666 154.727 45.9986 154.727 49.4027V55.4448H154.734ZM149.729 45.6189C148.557 45.6189 147.619 46.0053 146.935 46.758C146.252 47.5041 145.903 48.5367 145.903 49.8224C145.903 51.2879 146.265 52.3671 146.975 53.0399C147.712 53.7327 148.905 54.0858 150.533 54.0858H153.093V49.7358C153.093 46.9646 151.994 45.6189 149.736 45.6189" fill="white"/>
<path d="M68.9089 39.9092H65.2173V55.4374H68.9089V39.9092Z" fill="white"/>
</svg>
